<?xml version="1.0" encoding="utf-8"?>
<!-- Generator: Adobe Illustrator 25.2.0, SVG Export Plug-In . SVG Version: 6.00 Build 0)  -->
<svg version="1.1" id="Layer_1" xmlns="http://www.w3.org/2000/svg" xmlns:xlink="http://www.w3.org/1999/xlink" x="0px" y="0px"
	 viewBox="0 0 122.9 120.6" style="enable-background:new 0 0 122.9 120.6;" xml:space="preserve">
<style type="text/css">
	.st0{fill:#F5F5F5;}
</style>
<g>
	<path class="st0" d="M108.9,54c1.6-1.5,3.7-2.3,5.8-2.3c2.1,0,4.2,0.8,5.8,2.4l0.1,0.1c1.5,1.6,2.2,3.6,2.2,5.6c0,2-0.8,4-2.4,5.6
		c-17.7,17.7-35.6,35.1-53.4,52.7c-0.1,0.1-0.1,0.1-0.2,0.2c-1.6,1.6-3.8,2.3-5.9,2.3s-4.2-0.8-5.8-2.4l-0.3-0.3
		C37.5,100.4,19.9,83,2.4,65.5C0.8,63.9,0,61.9,0,59.9c0-2,0.7-4,2.2-5.6l0.2-0.2c1.6-1.6,3.7-2.4,5.8-2.4s4.2,0.7,5.9,2.3
		l47.3,47.2L108.9,54L108.9,54z M106.9,2.3c1.6-1.5,3.7-2.3,5.8-2.3c2.1,0,4.2,0.8,5.8,2.4l0.1,0.1c1.5,1.6,2.2,3.6,2.2,5.6
		c0,2-0.8,4-2.4,5.6C101.2,31,84.2,48.9,67.1,66.4c-0.1,0.1-0.1,0.1-0.2,0.2c-1.6,1.6-3.8,2.3-5.9,2.3s-4.2-0.8-5.8-2.4
		c-17-17.5-33.8-35.1-50.8-52.6l-0.1-0.1C2.8,12.2,2.1,10.2,2,8.2c0-2,0.7-4,2.2-5.6l0.2-0.2C6,0.8,8.1,0,10.1,0
		c2.1,0,4.2,0.7,5.8,2.3l45.2,47.2L106.9,2.3L106.9,2.3z"/>
</g>
</svg>
